<?xml version="1.0" encoding="utf-8"?>
<!-- Generator: Adobe Illustrator 22.0.0, SVG Export Plug-In . SVG Version: 6.00 Build 0)  -->
<svg version="1.1" id="Capa_1" xmlns="http://www.w3.org/2000/svg" xmlns:xlink="http://www.w3.org/1999/xlink" x="0px" y="0px"
	 viewBox="0 0 170 80.5" style="enable-background:new 0 0 170 80.5;" xml:space="preserve">
<style type="text/css">
	.st0{fill:#5A9797;}
	.st1{fill:url(#SVGID_1_);}
	.st2{fill:#9B9CA2;}
	.st3{fill:#248C77;}
	.st4{fill:#333333;}
	.st5{font-family:'Serpentine-Bold';}
	.st6{font-size:17.61px;}
	.st7{fill:none;stroke:#CCCCCC;stroke-width:0.75;stroke-miterlimit:10;}
	.st8{font-size:32.02px;}
	.st9{letter-spacing:1.1;}
	.st10{fill:none;stroke:#CCCCCC;stroke-miterlimit:10;}
</style>
<title>Logo</title>
<g id="Fondo">
	<path class="st0" d="M18.6,31.2c0,0-3.2,0.3-1.8-6.7c0,0,8.2-25.9,6.4-11.8c0,0,14.5-16.8,10.7-4.3c0,0,8.8-2.2,4.4,2.6
		c0,0-4.1,11.9,5.3,3.5c1.7,0.9,3.3,1.9,4.7,3.2l4.1,1c0,0-3.2,12.2,8.5,1c0,0,17.6-18.3,15-3.8c0,0,12.3-0.3,0.3,6.1
		c0,0-34.9,30.4,24.4-8c0,0,8.5-9.6,7.9,0.6c0,0,10.6-1.9,2.3,7.4c0,0-31.1,35.5-0.6,11.5c0,0,10-8.6,13.8-7c0,0,1.8-2.9,3.5,0
		c0,0,11.2-8,1.2,14.4c0,0-19.4,35.9,1.2,14.7c0,0,27.6-8.3,2.9,9.9c0,0-46.7,37.1-30.5-10.2c0,0,18.5-14.1-1.5-3.8
		c0,0-20.6,23.7-26.1,20.2c0,0-7,6.1-1.5-20.2l12.9-15.5c0,0,0.6-4.2-19.4,15c0,0-1.2,0.6-2.9-2.2c0,0-1.8-5.1-7.6-2.6
		c0,0-5.3,0.3,3.5-4.8c0,0,9.7-18.9-25.8-6.1c0,0-2.6,3.2-10.9,2.3c0,0,0.9-2.3-5-2.3L18.6,31.2z"/>
</g>
<g id="Rodillo">
	
		<linearGradient id="SVGID_1_" gradientUnits="userSpaceOnUse" x1="6.4323" y1="36.4882" x2="34.8523" y2="18.0082" gradientTransform="matrix(1 0 0 -1 0 86)">
		<stop  offset="0.45" style="stop-color:#666666"/>
		<stop  offset="0.54" style="stop-color:#CCCCCC;stop-opacity:0.9"/>
		<stop  offset="0.63" style="stop-color:#666666"/>
	</linearGradient>
	<path class="st1" d="M13.6,80.5l-7-3.5l13.5-22.8l10.1-14.6c0.4-0.6,1.2-0.8,1.8-0.5l2.3,1.2c0.8,0.5,1.1,1.5,0.7,2.3c0,0,0,0,0,0
		L13.6,80.5z"/>
	<path class="st2" d="M34.5,40.5l1.5-2.6c0,0-0.6-0.6,2.3,1l14.7,8c0,0,2.7,2.9,4.7-1.3l3.2-5.4c0,0,2.3-1.6-0.9-2.9l-0.6,1
		c0,0,2.3-0.3,0,2.2l-3.6,5c0,0-0.3,1.9-2.9-0.3L37.7,37c0,0-1.8-2.9-4.6,2.7L34.5,40.5z"/>
	<polygon class="st3" points="63.5,32.2 55.9,43.7 20.1,23.8 28,11.7 	"/>
	<polygon points="27.1,44.3 32.4,47.2 27.4,56.5 21,53.3 	"/>
</g>
<g id="Letras">
	<text transform="matrix(0.92 0 0 1 65.8003 48.48)" class="st4 st5 st6">PINTURAS</text>
	<text transform="matrix(0.92 0 0 1 65.8003 48.48)" class="st7 st5 st6">PINTURAS</text>
	<text transform="matrix(0.92 0 0 1 26.6602 72.0698)" class="st4 st5 st8 st9">V</text>
	<text transform="matrix(0.92 0 0 1 26.6602 72.0698)" class="st10 st5 st8 st9">V</text>
	<text transform="matrix(0.92 0 0 1 51.1416 72.0698)" class="st4 st5 st8 st9">INCER</text>
	<text transform="matrix(0.92 0 0 1 51.1416 72.0698)" class="st10 st5 st8 st9">INCER</text>
</g>
</svg>
